<svg class="w-8 h-8" viewBox="0 0 64 64" fill="none" xmlns="http://www.w3.org/2000/svg"><defs><linearGradient id="blueGradient" x1="0%" y1="0%" x2="100%" y2="100%"><stop offset="0%" style="stop-color:#2563EB;stop-opacity:1"></stop><stop offset="100%" style="stop-color:#1E40AF;stop-opacity:1"></stop></linearGradient></defs><circle cx="32" cy="32" r="30" fill="url(#blueGradient)"></circle><circle cx="32" cy="32" r="25" stroke="white" stroke-width="1.5" opacity="0.25" fill="none"></circle><circle cx="32" cy="32" r="20" stroke="white" stroke-width="1.5" opacity="0.3" fill="none"></circle><circle cx="32" cy="32" r="15" stroke="white" stroke-width="1.5" opacity="0.35" fill="none"></circle><path d="M 20 14 L 20 50 L 28 50 L 28 35 L 38 35 C 44 35 48 31 48 24.5 C 48 18 44 14 38 14 Z M 28 20.5 L 38 20.5 C 41 20.5 42.5 22 42.5 24.5 C 42.5 27 41 28.5 38 28.5 L 28 28.5 Z" fill="white"></path><path d="M 42 42 L 42 56 L 46 56 L 46 50.5 L 50 50.5 L 54 56 L 58 56 L 53.5 50 C 55.5 49.5 57 48 57 45.5 C 57 42.5 55 42 52 42 Z M 46 45.5 L 52 45.5 C 53 45.5 53.5 46 53.5 46.5 C 53.5 47 53 47.5 52 47.5 L 46 47.5 Z" fill="#FF5555" class="animate-pulse"></path></svg>